<svg version="1.2" xmlns="http://www.w3.org/2000/svg" viewBox="0 0 44 44" width="44" height="44"><style>.a{fill:#c7b299}</style><path class="a" d="m9.6 17.7c0-3.3 1.1-6.4 2.9-8.8 2-2.4 4.6-3.7 7.4-3.7 5.7 0 10.3 5.6 10.3 12.5 0 6.9-4.6 12.5-10.3 12.5-5.6 0-10.3-5.6-10.3-12.5zm10.3-9.8c4.2 0 7.6 4.4 7.6 9.8 0 5.4-3.4 9.8-7.6 9.8-4.1 0-7.5-4.4-7.5-9.8 0-5.4 3.4-9.8 7.5-9.8zm8.7 21c-0.8 0-1.4 0.6-1.4 1.3 0 0.8 0.6 1.4 1.4 1.4 4.7 0 8.5 3.9 8.5 8.6 0 0.6-0.5 1-1.1 1h-32.2c-0.6 0-1.1-0.4-1.1-1 0-4.7 3.9-8.6 8.6-8.6 0.7 0 1.3-0.6 1.3-1.4 0-0.7-0.6-1.3-1.3-1.3-6.2 0-11.3 5-11.3 11.3 0 2.1 1.7 3.8 3.8 3.8h32.2c2.1 0 3.9-1.7 3.9-3.8 0-6.3-5.1-11.3-11.3-11.3zm-7.7-25.3q1.5-0.8 3.2-0.8c4.1 0 7.5 4.3 7.5 9.7q0 1.5-0.3 2.9c-0.2 0.7 0.3 1.5 1 1.6q0.2 0.1 0.3 0.1c0.7 0 1.2-0.5 1.4-1.1q0.4-1.7 0.4-3.5c0-6.9-4.6-12.5-10.3-12.5-1.6 0-3.2 0.4-4.6 1.3-0.6 0.3-0.8 1.2-0.4 1.8 0.3 0.7 1.2 0.9 1.8 0.5zm12.1 19.8c-0.8 0-1.4 0.6-1.4 1.3 0 0.8 0.6 1.4 1.4 1.4 4.7 0 8.3 3.9 8.3 8.6q0 0.3-0.1 0.5c-0.4 0.7 0 1.5 0.7 1.8q0.2 0.1 0.5 0.1c0.5 0 1-0.3 1.3-0.8q0.3-0.7 0.3-1.6c0-6.2-4.8-11.3-11-11.3z"/></svg>