<svg version="1.2" xmlns="http://www.w3.org/2000/svg" viewBox="0 0 54 44" width="54" height="44"><style>.a{fill:#c7b299}</style><path class="a" d="m54 42.3c0 0.9-0.8 1.7-1.7 1.7h-50.6c-0.9 0-1.7-0.8-1.7-1.7 0-0.9 0.8-1.7 1.7-1.7h50.6c0.9 0 1.7 0.8 1.7 1.7zm-25.3-35.5v-3.4h3.4c0.9 0 1.7-0.8 1.7-1.7 0-0.9-0.8-1.7-1.7-1.7h-10.2c-0.9 0-1.6 0.8-1.6 1.7 0 0.9 0.7 1.7 1.6 1.7h3.4c0 0 0 3.5 0 3.4-14.1 0.8-25.3 12.7-25.3 27 0 1.4 0 0.8 0 1.7 0 1 0.8 1.7 1.7 1.7h50.6c0.9 0 1.7-0.7 1.7-1.7 0-0.9 0-0.2 0-1.7 0-14.3-11.2-26.2-25.3-27zm-25.3 27c0-13 10.6-23.6 23.6-23.6 13 0 23.6 10.6 23.6 23.6z"/></svg>