<svg version="1.2" xmlns="http://www.w3.org/2000/svg" viewBox="0 0 44 44" width="44" height="44"><style>.a{fill:#c7b299}</style><path class="a" d="m30.2 24.7c0 0.8-0.6 1.4-1.3 1.4h-13.8c-0.7 0-1.3-0.6-1.3-1.4 0-0.7 0.6-1.3 1.3-1.3h13.8c0.7 0 1.3 0.6 1.3 1.3zm1.4-9.6h-19.2c-0.8 0-1.4 0.6-1.4 1.4 0 0.8 0.6 1.4 1.4 1.4h19.2c0.8 0 1.4-0.6 1.4-1.4 0-0.8-0.6-1.4-1.4-1.4zm-9.6-15.1c-12.1 0-22 8.6-22 19.2 0 6.1 3.2 11.5 8.3 15.1v9.7l9.6-5.9q2 0.4 4.1 0.4c12.1 0 22-8.6 22-19.3 0-10.6-9.9-19.2-22-19.2zm0 35.7q-2.4 0-4.6-0.5l-6.5 3.9 0.1-6.3c-5-3-8.2-8-8.2-13.6 0-9.1 8.6-16.4 19.2-16.4 10.6 0 19.2 7.3 19.2 16.4 0 9.2-8.6 16.5-19.2 16.5z"/></svg>