<svg version="1.2" xmlns="http://www.w3.org/2000/svg" viewBox="0 0 44 44" width="44" height="44"><style>.a{fill:#c7b299}</style><path class="a" d="m44 13.7c0 12.5-8 23.8-21.4 30.2q-0.3 0.1-0.6 0.1-0.3 0-0.6-0.1c-13.4-6.4-21.4-17.7-21.4-30.2 0-7.5 6.2-13.7 13.7-13.7 3 0 5.9 1 8.3 2.8q0.1-0.1 0.2-0.2 0.3-0.2 0.6-0.4 0.2-0.1 0.4-0.2 0.3-0.2 0.7-0.4 0.1-0.1 0.2-0.1 0.7-0.4 1.4-0.6 0.2-0.1 0.5-0.2 0.3-0.1 0.6-0.2 0.3-0.1 0.6-0.1 0.3-0.1 0.6-0.2 0.3 0 0.7-0.1 0.3 0 0.5 0 0.6-0.1 1.2-0.1c7.6 0 13.8 6.2 13.8 13.7zm-22 27.4c-12.1-6-19.3-16.2-19.3-27.4 0-6 5-11 11-11 2.3 0 4.4 0.7 6.2 2-2.1 2.4-3.4 5.6-3.4 9 0 0.8 0.6 1.4 1.4 1.4 0.7 0 1.3-0.6 1.3-1.4 0-3.2 1.5-6.2 3.8-8.2q0.3-0.3 0.6-0.5 0.1-0.1 0.2-0.1 0.3-0.3 0.7-0.5 0 0 0.1-0.1 0.4-0.2 0.7-0.4 0.1 0 0.3-0.1 0.3-0.1 0.6-0.3 0.2 0 0.3-0.1 0.4-0.1 0.7-0.2 0.2-0.1 0.4-0.1 0.3-0.1 0.6-0.1 0.2-0.1 0.5-0.1 0.3-0.1 0.5-0.1 0.5 0 1-0.1c6.1 0 11 5 11 11 0 11.2-7.1 21.4-19.2 27.4zm8.2-35.6c-0.7 0-1.3 0.6-1.3 1.4 0 0.7 0.6 1.3 1.3 1.3 3.1 0 5.5 2.5 5.5 5.5 0 0.8 0.7 1.4 1.4 1.4 0.8 0 1.4-0.6 1.4-1.4 0-4.5-3.7-8.2-8.3-8.2z"/></svg>