<svg version="1.2" xmlns="http://www.w3.org/2000/svg" viewBox="0 0 48 44" width="48" height="44"><style>.a{fill:#c7b299}</style><path class="a" d="m46 42.7c0 0.7-0.5 1.3-1.2 1.3h-43.6c-0.6 0-1.2-0.6-1.2-1.3 0-0.6 0.6-1.2 1.2-1.2h43.6c0.7 0 1.2 0.6 1.2 1.2zm-24.2-20.5c0.2 0.2 0.5 0.3 0.8 0.3 0.3 0 0.7-0.1 0.9-0.3 0.5-0.6 0.5-1.3 0-1.8-2.2-2-1.7-6.1 0.1-8.4 2.5-3.1 3-8.7-0.1-11.7-0.5-0.4-1.3-0.4-1.8 0.1-0.5 0.5-0.4 1.3 0.1 1.8 1.9 1.8 1.8 5.8-0.1 8.2-1.3 1.7-2.1 3.8-2.1 6-0.1 2.4 0.7 4.4 2.2 5.8zm26.2-2.6v2.4c0 3.5-2.8 6.3-6.2 6.3h-2.7c-1.9 5.2-6.9 9-12.7 9h-6.8c-7.4 0-13.4-6.1-13.4-13.7v-12.4c0-0.7 0.5-1.2 1.2-1.2h7.9c1.6-2.5 1.5-6.1-0.2-7.8-0.5-0.5-0.6-1.3-0.1-1.8 0.5-0.5 1.2-0.5 1.7-0.1 3.2 3 2.7 8.6 0.2 11.7-1.8 2.3-2.3 6.4-0.2 8.4 0.5 0.5 0.6 1.2 0.1 1.8-0.5 0.5-1.2 0.5-1.7 0-1.5-1.4-2.3-3.4-2.2-5.8 0-1.4 0.3-2.7 0.9-3.9h-5.2v11.1c0 6.2 5 11.2 11 11.2h6.8c6.1 0 11-5 11-11.2v-11.1h-9.3c-0.6 0-1.2-0.6-1.2-1.3 0-0.7 0.6-1.2 1.2-1.2h10.5c0.7 0 1.3 0.5 1.3 1.2v2.2h1.9c3.4 0 6.2 2.8 6.2 6.2zm-2.5 0c0-2-1.6-3.7-3.7-3.7h-1.9v9.9h1.9c2.1 0 3.7-1.7 3.7-3.8z"/></svg>