<svg version="1.2" xmlns="http://www.w3.org/2000/svg" viewBox="0 0 64 56" width="64" height="56"><style>.a{fill:#fff}</style><path class="a" d="m31.9 19.9l-5.3-9.2h10.5zm-1.3 0.8h-10.5l5.2-9.2zm2.7 0l5.2-9.2 5.3 9.2zm10.5 1.5l-5.3 9.2-5.2-9.2zm-13.2 0l-5.2 9.2-5.3-9.2zm-11.8 0.8l5.3 9.2h-10.5zm21 9.2l5.2-9.2 5.3 9.2zm-2.6-23h-10.6l5.3-9.2zm2.6 24.5h10.5l-5.2 9.2zm-26.3 0h10.5l-5.2 9.2zm-1.4 0.7l5.3 9.2h-10.5zm34.1 9.2l5.3-9.2 5.3 9.2zm10.5 1.6l-5.3 9.1-5.2-9.1zm-13.2 0l-5.2 9.1-5.3-9.1zm-36.8 0h10.5l-5.2 9.1zm-1.3 0.8l5.2 9.2h-10.5zm26.3 0l5.2 9.2h-10.5zm13.2 0l5.2 9.2h-10.5zm18.4 9.2h-10.5l5.3-9.2z"/></svg>