<svg version="1.2" xmlns="http://www.w3.org/2000/svg" viewBox="0 0 49 49" width="49" height="49"><style></style><path  d="m47.7 19.7l-14.3 14.3-32.9 14.5 14.5-32.9 14.3-14.3c0.6-0.6 1.6-0.6 2.2 0 0.6 0.6 0.6 1.7 0 2.3l-13.8 13.8-8.6 19.5 3 3 19.5-8.6 13.8-13.8c0.6-0.7 1.6-0.7 2.3 0 0.6 0.6 0.6 1.6 0 2.2zm-20.2 6.5l13.3-13.3c0.6-0.6 1.7-0.6 2.3 0 0.6 0.6 0.6 1.6 0 2.2l-13.4 13.4c-0.3 0.3-0.7 0.4-1.1 0.4-0.4 0-0.8-0.1-1.1-0.4-0.6-0.7-0.6-1.7 0-2.3zm-3.5-3.5l13.3-13.3c0.7-0.6 1.7-0.6 2.3 0 0.6 0.6 0.6 1.6 0 2.3l-13.3 13.3c-0.3 0.3-0.8 0.4-1.2 0.4-0.4 0-0.8-0.1-1.1-0.4-0.6-0.6-0.6-1.6 0-2.3zm-3.5-3.4l13.4-13.4c0.6-0.6 1.6-0.6 2.2 0 0.6 0.6 0.6 1.6 0 2.3l-13.3 13.3c-0.3 0.3-0.7 0.5-1.1 0.5-0.4 0-0.9-0.2-1.2-0.5-0.6-0.6-0.6-1.6 0-2.2z"/></svg>