<svg version="1.2" xmlns="http://www.w3.org/2000/svg" viewBox="0 0 44 44" width="44" height="44"><style></style><path  d="m41.3 25.7c-1.4 0.5-2.8 1.8-3.2 2.8-0.4 0.9-0.3 2.8 0.3 4.2 0.7 1.4 0.3 3.4-0.9 4.6-1.1 1.1-3.1 1.5-4.5 0.8-1.4-0.6-3.3-0.7-4.3-0.3-0.9 0.4-2.2 1.8-2.7 3.2-0.5 1.5-2.2 2.6-3.9 2.6-1.6 0-3.3-1.1-3.8-2.6-0.5-1.4-1.8-2.8-2.8-3.2-0.9-0.4-2.8-0.3-4.2 0.3-1.4 0.7-3.4 0.3-4.6-0.8-1.1-1.2-1.5-3.2-0.8-4.6 0.6-1.4 0.7-3.3 0.3-4.2-0.4-1-1.8-2.3-3.2-2.8-1.5-0.5-2.6-2.2-2.6-3.9 0-1.6 1.1-3.3 2.6-3.8 1.4-0.5 2.8-1.8 3.2-2.8 0.4-0.9 0.3-2.8-0.3-4.2-0.7-1.4-0.3-3.4 0.8-4.6 1.2-1.1 3.2-1.5 4.6-0.8 1.4 0.6 3.3 0.7 4.2 0.3 1-0.4 2.3-1.8 2.8-3.2 0.5-1.5 2.2-2.6 3.8-2.6 1.7 0 3.4 1.1 3.9 2.6 0.5 1.4 1.8 2.8 2.7 3.2 1 0.4 2.9 0.3 4.3-0.3 1.4-0.7 3.4-0.3 4.5 0.8 1.2 1.2 1.6 3.2 0.9 4.6-0.6 1.4-0.7 3.3-0.3 4.3 0.4 0.9 1.8 2.2 3.2 2.7 1.5 0.5 2.6 2.2 2.6 3.8 0 1.7-1.1 3.4-2.6 3.9zm-19.2 4.1c-4.4 0-7.9-3.5-7.9-7.9 0-4.5 3.5-8 7.9-8 4.5 0 8 3.5 8 8 0 4.4-3.5 7.9-8 7.9z"/></svg>