<svg version="1.2" xmlns="http://www.w3.org/2000/svg" viewBox="0 0 52 36" width="52" height="36"><style></style><path  d="m0.7 30.1v-22.1c0-1.4 1.1-2.5 2.5-2.5h10.8v-1.4c0-1 0.4-2 1.1-2.7 0.7-0.7 1.6-1.1 2.6-1.1h6.3c2 0 3.7 1.7 3.7 3.8v1.4h10.8c1.3 0 2.4 1.1 2.4 2.5v1.6h-26.2c-2.2 0-4.7 1.6-5.7 3.6zm15.7-26c0-0.4 0.2-0.7 0.4-0.9 0.2-0.3 0.5-0.4 0.9-0.4h6.2c0.7 0 1.3 0.6 1.3 1.3v1.4h-8.8zm25.5 29.7c-0.6 1.2-2.2 2.2-3.6 2.2h-35.3c-1.3 0-1.9-1-1.3-2.2l9.5-19.4c0.6-1.2 2.2-2.2 3.5-2.2h35.3c1.4 0 2 1 1.4 2.2z"/></svg>